name C:\Users\u0101727\Documents\MyRepositories\upper-imu-dc\Results\main_tracking\Case_42\FLX01_orientations_groundFrame.mot
datacolumns 13
datarows 43
range 0.51000000 0.93000000
endheader 
time	radius_imu_[0][0]	radius_imu_[0][1]	radius_imu_[0][2]	radius_imu_[1][0]	radius_imu_[1][1]	radius_imu_[1][2]	radius_imu_[2][0]	radius_imu_[2][1]	radius_imu_[2][2]	radius_imu_x	radius_imu_y	radius_imu_z	
          0.51000000	          0.66813004	         -0.05078210	          0.74230953	         -0.09990175	          0.98251150	          0.15713304	         -0.73730719	         -0.17914333	          0.65137222	         -0.23671132	          0.83651057	          0.07586045	
          0.52000000	          0.66907618	         -0.05147748	          0.74140889	         -0.10104558	          0.98203379	          0.15937199	         -0.73629265	         -0.18154810	          0.65185384	         -0.23978645	          0.83516745	          0.07678687	
          0.53000000	          0.66928883	         -0.05230308	          0.74115912	         -0.10254350	          0.98147117	          0.16186157	         -0.73589217	         -0.18433320	          0.65152436	         -0.24350536	          0.83479532	          0.07798874	
          0.54000000	          0.66954480	         -0.05318884	          0.74086483	         -0.10425647	          0.98082891	          0.16463668	         -0.73541848	         -0.18747158	          0.65116362	         -0.24764471	          0.83435706	          0.07927382	
          0.55000000	          0.66970774	         -0.05425166	          0.74064047	         -0.10608148	          0.98011148	          0.16771466	         -0.73500903	         -0.19088804	          0.65063314	         -0.25227950	          0.83402308	          0.08083146	
          0.56000000	          0.66968409	         -0.05557095	          0.74056404	         -0.10794614	          0.97932215	          0.17110157	         -0.73475904	         -0.19452503	          0.64983779	         -0.25745558	          0.83390933	          0.08279116	
          0.57000000	          0.66940570	         -0.05720204	          0.74069152	         -0.10980000	          0.97846302	          0.17479723	         -0.73473803	         -0.19833819	          0.64870794	         -0.26320327	          0.83409907	          0.08524489	
          0.58000000	          0.66883031	         -0.05918229	          0.74105565	         -0.11160814	          0.97753501	          0.17879854	         -0.73498955	         -0.20229373	          0.64719982	         -0.26954173	          0.83464120	          0.08825640	
          0.59000000	          0.66793617	         -0.06153709	          0.74167005	         -0.11334593	          0.97653797	          0.18310184	         -0.73553652	         -0.20636562	          0.64529005	         -0.27648381	          0.83555671	          0.09187086	
          0.60000000	          0.66671948	         -0.06428387	          0.74253129	         -0.11499489	          0.97547078	          0.18770437	         -0.73638394	         -0.21053346	          0.64297306	         -0.28403857	          0.83684159	          0.09612104	
          0.61000000	          0.66520142	         -0.06743224	          0.74361278	         -0.11653954	          0.97433147	          0.19260510	         -0.73751313	         -0.21478147	          0.64026815	         -0.29220840	          0.83845766	          0.10102605	
          0.62000000	          0.66341708	         -0.07098849	          0.74487477	         -0.11796492	          0.97311736	          0.19780516	         -0.73889246	         -0.21909641	          0.63720852	         -0.30099294	          0.84034712	          0.10659870	
          0.63000000	          0.66141606	         -0.07495579	          0.74626431	         -0.11925528	          0.97182517	          0.20330770	         -0.74047753	         -0.22346694	          0.63384190	         -0.31038730	          0.84243219	          0.11284479	
          0.64000000	          0.65925817	         -0.07933535	          0.74771958	         -0.12039327	          0.97045108	          0.20911759	         -0.74221569	         -0.22788288	          0.63022636	         -0.32038205	          0.84462112	          0.11976442	
          0.65000000	          0.65700964	         -0.08412680	          0.74917356	         -0.12135990	          0.96899080	          0.21524081	         -0.74404980	         -0.23233492	          0.62642667	         -0.33096279	          0.84681350	          0.12735202	
          0.66000000	          0.65473811	         -0.08932881	          0.75055871	         -0.12213497	          0.96743960	          0.22168373	         -0.74592296	         -0.23681425	          0.62250940	         -0.34211034	          0.84890717	          0.13559720	
          0.67000000	          0.65250809	         -0.09493943	          0.75181094	         -0.12269763	          0.96579233	          0.22845234	         -0.74778238	         -0.24131242	          0.61853847	         -0.35380119	          0.85080423	          0.14448535	
          0.68000000	          0.65037725	         -0.10095629	          0.75287267	         -0.12302718	          0.96404345	          0.23555156	         -0.74958238	         -0.24582118	          0.61457156	         -0.36600799	          0.85241591	          0.15399824	
          0.69000000	          0.64839333	         -0.10737664	          0.75369513	         -0.12310401	          0.96218706	          0.24298450	         -0.75128656	         -0.25033242	          0.61065717	         -0.37870039	          0.85366643	          0.16411472	
          0.70000000	          0.64659158	         -0.11419729	          0.75424022	         -0.12291074	          0.96021685	          0.25075196	         -0.75286937	         -0.25483832	          0.60683206	         -0.39184624	          0.85449620	          0.17481153	
          0.71000000	          0.64499252	         -0.12141457	          0.75448204	         -0.12243347	          0.95812615	          0.25885195	         -0.75431737	         -0.25933142	          0.60311899	         -0.40541329	          0.85486458	          0.18606449	
          0.72000000	          0.64360024	         -0.12902427	          0.75440802	         -0.12166319	          0.95590782	          0.26727946	         -0.75563007	         -0.26380481	          0.59952500	         -0.41937132	          0.85475180	          0.19785003	
          0.73000000	          0.64240163	         -0.13702158	          0.75401938	         -0.12059700	          0.95355430	          0.27602637	         -0.75682000	         -0.26825227	          0.59604045	         -0.43369438	          0.85415993	          0.21014671	
          0.74000000	          0.64136685	         -0.14540103	          0.75333067	         -0.11923910	          0.95105756	          0.28508166	         -0.75791200	         -0.27266840	          0.59263930	         -0.44836275	          0.85311206	          0.22293663	
          0.75000000	          0.64045126	         -0.15415629	          0.75236827	         -0.11760126	          0.94840913	          0.29443175	         -0.75894145	         -0.27704864	          0.58928085	         -0.46336427	          0.85164988	          0.23620626	
          0.76000000	          0.63959862	         -0.16328004	          0.75116791	         -0.11570277	          0.94560018	          0.30406114	         -0.75995163	         -0.28138929	          0.58591261	         -0.47869482	          0.84982957	          0.24994672	
          0.77000000	          0.63874531	         -0.17276370	          0.74977139	         -0.11356986	          0.94262155	          0.31395303	         -0.76099035	         -0.28568746	          0.58247434	         -0.49435786	          0.84771651	          0.26415314	
          0.78000000	          0.63782521	         -0.18259720	          0.74822273	         -0.11123447	          0.93946392	          0.32409017	         -0.76210622	         -0.28994105	          0.57890267	         -0.51036296	          0.84537918	          0.27882347	
          0.79000000	          0.63677465	         -0.19276880	          0.74656429	         -0.10873266	          0.93611790	          0.33445549	         -0.76334478	         -0.29414870	          0.57513589	         -0.52672364	          0.84288295	          0.29395663	
          0.80000000	          0.63553693	         -0.20326502	          0.74483296	         -0.10610252	          0.93257420	          0.34503278	         -0.76474510	         -0.29830972	          0.57111841	         -0.54345459	          0.84028447	          0.30955051	
          0.81000000	          0.63406599	         -0.21407081	          0.74305720	         -0.10338195	          0.92882371	          0.35580709	         -0.76633706	         -0.30242387	          0.56680447	         -0.56056881	          0.83762710	          0.32559997	
          0.82000000	          0.63232913	         -0.22516976	          0.74125465	         -0.10060632	          0.92485771	          0.36676504	         -0.76813947	         -0.30649112	          0.56216097	         -0.57807455	          0.83493763	          0.34209503	
          0.83000000	          0.63030864	         -0.23654451	          0.73943067	         -0.09780617	          0.92066794	          0.37789482	         -0.77015905	         -0.31051125	          0.55716945	         -0.59597243	          0.83222429	          0.35901930	
          0.84000000	          0.62800284	         -0.24817710	          0.73757749	         -0.09500500	          0.91624683	          0.38918608	         -0.77239011	         -0.31448351	          0.55182755	         -0.61425251	          0.82947579	          0.37634835	
          0.85000000	          0.62542644	         -0.26004918	          0.73567397	         -0.09221739	          0.91158755	          0.40062962	         -0.77481464	         -0.31840629	          0.54614989	         -0.63289135	          0.82666118	          0.39404816	
          0.86000000	          0.62261043	         -0.27214213	          0.73368584	         -0.08944737	          0.90668421	          0.41221708	         -0.77740300	         -0.32227692	          0.54016864	         -0.65184936	          0.82373062	          0.41207346	
          0.87000000	          0.61960139	         -0.28443703	          0.73156660	         -0.08668729	          0.90153195	          0.42394040	         -0.78011501	         -0.32609159	          0.53393337	         -0.67106858	          0.82061697	          0.43036638	
          0.88000000	          0.61646006	         -0.29691459	          0.72925903	         -0.08391726	          0.89612706	          0.43579144	         -0.78290159	         -0.32984544	          0.52751028	         -0.69047133	          0.81723841	          0.44885566	
          0.89000000	          0.61325909	         -0.30955506	          0.72669729	         -0.08110515	          0.89046707	          0.44776148	         -0.78570684	         -0.33353269	          0.52098052	         -0.70996003	          0.81350191	          0.46745668	
          0.90000000	          0.61008042	         -0.32233810	          0.72380939	         -0.07820723	          0.88455076	          0.45984083	         -0.78847036	         -0.33714701	          0.51443793	         -0.72941823	          0.80930731	          0.48607224	
          0.91000000	          0.60701076	         -0.33524305	          0.72052066	         -0.07516957	          0.87837821	          0.47201828	         -0.79113050	         -0.34068141	          0.50798495	         -0.74871407	          0.80455288	          0.50459598	
          0.92000000	          0.60414476	         -0.34824619	          0.71675219	         -0.07192979	          0.87195067	          0.48428106	         -0.79362158	         -0.34413170	          0.50173515	         -0.76769839	          0.79913359	          0.52290710	
          0.93000000	          0.60157749	         -0.36132563	          0.71242425	         -0.06841786	          0.86526873	          0.49661759	         -0.79587909	         -0.34749651	          0.49580506	         -0.78621689	          0.79294676	          0.54088278	
